<svg width="177" height="97" viewBox="0 0 177 97" fill="none" xmlns="http://www.w3.org/2000/svg">
<path fill-rule="evenodd" clip-rule="evenodd" d="M126.88 81.6292C127.085 81.2693 127.543 81.1437 127.903 81.3487C136.114 86.0253 142.986 85.9163 148.363 82.7957C153.791 79.6454 157.862 73.3321 160.205 65.2691C164.89 49.1441 162.527 26.4807 150.918 9.93139C150.68 9.59228 150.762 9.12455 151.101 8.88668C151.44 8.6488 151.908 8.73086 152.146 9.06996C164.037 26.0206 166.447 49.161 161.645 65.6877C159.244 73.9506 155.005 80.6753 149.116 84.093C143.176 87.5404 135.724 87.5294 127.161 82.6521C126.801 82.4471 126.675 81.9891 126.88 81.6292Z" fill="white"/>
<path fill-rule="evenodd" clip-rule="evenodd" d="M146.884 14.2765C146.478 14.1953 146.215 13.8001 146.296 13.394L148.178 3.99074C148.224 3.75747 148.379 3.56011 148.594 3.45897C148.809 3.35784 149.06 3.36486 149.269 3.4779L156.533 7.40027C156.898 7.59708 157.033 8.05208 156.837 8.41655C156.64 8.78102 156.185 8.91694 155.82 8.72013L149.449 5.27982L147.767 13.6883C147.685 14.0945 147.29 14.3578 146.884 14.2765Z" fill="white"/>
<path d="M11.9145 59.0052C11.9878 59.0768 11.9826 59.1661 11.899 59.2731L11.726 59.4394C11.6466 59.4491 11.594 59.4798 11.568 59.5313C11.5561 59.565 11.5123 59.6026 11.4368 59.6442C11.3315 59.7054 11.25 59.7638 11.1923 59.8193C11.1486 59.8569 11.0175 59.9052 10.7991 59.9643C10.2811 59.9473 9.71347 59.9847 9.09608 60.0766C8.47673 60.1527 7.96255 60.2319 7.55355 60.3144C7.73658 61.0173 7.88479 61.7648 7.99816 62.5569C8.11154 63.349 8.20304 64.1599 8.27268 64.9896C8.35624 65.8015 8.42295 66.6074 8.47281 67.4072C8.53854 68.2052 8.61528 68.9615 8.70303 69.6761L8.75275 70.0811C8.6402 69.8208 8.5406 69.5348 8.45396 69.2231C8.40855 69.1158 8.37303 69.0235 8.3474 68.946C8.31982 68.8527 8.28332 68.7524 8.23791 68.6451C7.85764 67.3861 7.57976 66.0419 7.40426 64.6126C7.22877 63.1834 7.1455 61.7831 7.15444 60.4118C6.26484 60.65 5.40797 60.8922 4.58384 61.1385C3.75971 61.3847 2.95132 61.6936 2.15867 62.0649C2.06729 62.1084 1.97493 62.1439 1.8816 62.1715C1.80414 62.1971 1.71972 62.2317 1.62834 62.2751C1.53919 62.2055 1.4609 62.1587 1.39347 62.1347C1.32605 62.1107 1.2766 62.0362 1.24512 61.9111C1.19191 61.7403 1.22298 61.5995 1.33832 61.4886C1.45172 61.3618 1.56414 61.2271 1.67559 61.0845C1.72128 61.0628 1.74817 61.0192 1.75625 60.9537C1.76433 60.8882 1.77241 60.8227 1.78049 60.7573C1.80445 60.6898 1.82145 60.6313 1.83148 60.5817C1.83956 60.5163 1.86645 60.4727 1.91214 60.4509C2.65715 60.0854 3.44868 59.7706 4.28674 59.5065C5.12481 59.2424 5.97067 59.0418 6.82433 58.9048C7.69387 58.7658 8.5563 58.7002 9.41163 58.708C10.2828 58.7139 11.1171 58.8129 11.9145 59.0052Z" fill="white"/>
<path d="M21.9609 59.0532C21.9784 59.1961 22.0247 59.3758 22.0996 59.5923C22.1726 59.7929 22.1772 59.9616 22.1134 60.0984C22.0855 60.1341 22.0774 60.1995 22.0891 60.2948C22.0989 60.3742 22.0819 60.4327 22.0381 60.4703L21.7051 60.3178C21.4354 60.2219 21.1427 60.2015 20.827 60.2563C20.5273 60.3093 20.2264 60.4188 19.9243 60.5848C19.7137 60.7074 19.508 60.8697 19.3071 61.0717C19.1201 61.2558 18.944 61.4628 18.7788 61.6927C18.6136 61.9225 18.4652 62.1583 18.3337 62.4002C18.2022 62.642 18.0936 62.873 18.0077 63.0931C17.8102 63.5848 17.7514 64.1562 17.8313 64.8073C17.9272 65.4565 18.2687 66.2689 18.856 67.2446C18.8697 67.3558 18.8068 67.5005 18.6675 67.6788C18.6397 67.7145 18.6058 67.767 18.566 67.8364C18.5261 67.9058 18.4923 67.9583 18.4644 67.9939C18.351 68.1207 18.2833 68.2257 18.2613 68.309C18.2552 68.3904 18.2143 68.4518 18.1388 68.4933C18.0176 68.5566 17.8849 68.46 17.7406 68.2037C17.4121 67.7604 17.0789 67.213 16.741 66.5613C16.417 65.8918 16.0989 65.2054 15.7869 64.5022C15.4908 63.7971 15.2144 63.1217 14.9578 62.4762C14.7152 61.8128 14.5179 61.2567 14.3661 60.8078C14.3029 60.6866 14.2803 60.5685 14.2984 60.4534C14.3146 60.3225 14.3495 60.2134 14.4033 60.1262C14.4431 60.0569 14.4968 60.0341 14.5642 60.0581C14.6475 60.0801 14.713 60.0882 14.7606 60.0824C14.9671 60.057 15.099 60.0811 15.1564 60.1547C15.2138 60.2282 15.3059 60.3217 15.4326 60.4351C15.6861 60.6619 15.9028 60.9819 16.0824 61.395C16.2621 61.8082 16.4833 62.2969 16.7461 62.8611C16.9475 62.4011 17.2224 61.9482 17.5706 61.5025C17.9348 61.0548 18.3356 60.6429 18.773 60.2667C19.2085 59.8747 19.6676 59.5443 20.1505 59.2755C20.6333 59.0066 21.11 58.8191 21.5806 58.713C21.6739 58.6854 21.7572 58.7074 21.8305 58.779C21.9177 58.8328 21.9611 58.9242 21.9609 59.0532Z" fill="white"/>
<path d="M30.965 68.7078C30.9408 68.9042 30.9136 69.0768 30.8835 69.2256C30.8515 69.3585 30.8185 69.4835 30.7845 69.6005C30.7505 69.7175 30.7076 69.8275 30.6557 69.9306C30.6039 70.0337 30.5471 70.1616 30.4852 70.3143C30.4136 70.3875 30.3409 70.5174 30.2671 70.7038C30.2111 70.9041 30.1076 71.0458 29.9565 71.1288C29.5492 71.3561 29.0834 71.5664 28.559 71.7598C28.0506 71.9512 27.6187 72.0445 27.2635 72.0398C27.2298 72.0278 27.1891 72.0247 27.1415 72.0306C27.1117 72.0503 27.0869 72.0453 27.0671 72.0155C26.9682 71.8665 26.9675 71.7295 27.065 71.6047C27.1803 71.4938 27.2461 71.3729 27.2623 71.242C27.2843 71.1587 27.3043 71.0595 27.3224 70.9444C27.3425 70.8452 27.3883 70.759 27.4599 70.6857C27.609 70.5868 27.8295 70.4792 28.1215 70.3627C28.4154 70.2621 28.6975 70.1308 28.9678 69.9686C29.2539 69.8045 29.5034 69.6046 29.7163 69.3689C29.9431 69.1154 30.0728 68.7932 30.1054 68.4023C30.1402 67.8983 30.1533 67.3486 30.1447 66.7532C30.1361 66.1578 30.1106 65.5565 30.0683 64.9491C30.0418 64.3398 30.0005 63.7404 29.9442 63.1508C29.9038 62.5593 29.8603 62.0085 29.8138 61.4984C29.7419 61.7007 29.6343 61.9396 29.4908 62.2151C29.3453 62.4748 29.184 62.7364 29.0068 62.9999C28.8296 63.2635 28.6495 63.5032 28.4664 63.7191C28.2834 63.9351 28.1104 64.1014 27.9474 64.2181C27.7546 64.3546 27.6015 64.4863 27.4881 64.613C27.3727 64.7239 27.2584 64.8427 27.145 64.9695C27.0594 65.0606 26.9324 65.0762 26.7638 65.0163C26.5953 64.9564 26.4348 64.831 26.2824 64.6402C26.1083 64.4036 25.9353 64.1105 25.7634 63.7609C25.5895 63.3953 25.4137 63.0139 25.236 62.6166C25.0563 62.2034 24.8756 61.7823 24.694 61.3533C24.5104 60.9083 24.3297 60.4872 24.152 60.0899C24.0038 59.8018 23.9854 59.5864 24.0968 59.4438C24.1943 59.319 24.3146 59.2478 24.4575 59.2303C24.5845 59.2147 24.6609 59.2456 24.6865 59.323C24.7261 59.3827 24.8103 59.4126 24.9393 59.4129C25.0525 59.4151 25.1367 59.4451 25.1922 59.5027C25.2635 59.5585 25.3418 59.6053 25.427 59.6432C25.5301 59.695 25.6014 59.7507 25.641 59.8103C25.6964 59.868 25.7577 59.9733 25.8249 60.1263C25.9413 60.4183 26.04 60.6963 26.1207 60.9604C26.2155 61.2067 26.3022 61.454 26.3811 61.7022C26.4758 61.9485 26.5715 62.2028 26.6682 62.4649C26.7788 62.7093 26.9002 62.9765 27.0326 63.2665C27.4263 62.928 27.7614 62.5725 28.0381 62.2C28.3287 61.8097 28.5796 61.4242 28.7908 61.0437C29.0159 60.6453 29.2112 60.2666 29.3767 59.9078C29.5403 59.5331 29.6899 59.1762 29.8256 58.8371C29.8774 58.734 29.9402 58.5893 30.0141 58.4029C30.0879 58.2165 30.1597 58.0787 30.2293 57.9896C30.2711 57.9361 30.305 57.8836 30.3309 57.832C30.3548 57.7646 30.3887 57.7121 30.4324 57.6745C30.5038 57.7302 30.5522 57.7968 30.5779 57.8743C30.6035 57.9517 30.6301 58.0371 30.6577 58.1304C30.7226 58.3965 30.7348 58.6932 30.6944 59.0206C30.668 59.3301 30.6635 59.5564 30.681 59.6993C30.7688 60.4139 30.8585 61.1444 30.9501 61.8908C31.0418 62.6372 31.1096 63.3865 31.1536 64.1388C31.1976 64.891 31.2108 65.6551 31.1933 66.431C31.1737 67.1911 31.0977 67.95 30.965 68.7078Z" fill="white"/>
<path d="M50.0037 58.0763C50.0394 58.1042 50.0652 58.1172 50.081 58.1152C50.0969 58.1133 50.1068 58.1282 50.1107 58.1599C50.0987 58.1936 50.0639 58.2382 50.0062 58.2937C49.9625 58.3313 49.8701 58.3668 49.7291 58.4002C49.6835 58.422 49.6238 58.4615 49.5503 58.5189C49.4748 58.5604 49.4142 58.592 49.3685 58.6138C48.9514 58.7617 48.4539 58.9114 47.8761 59.063C47.3141 59.2126 46.7274 59.3572 46.1158 59.4967C46.1523 60.0565 46.1998 60.5745 46.2583 61.051C46.3327 61.5254 46.4072 61.9354 46.4819 62.2809C46.5468 62.547 46.6904 62.6664 46.9127 62.6391C47.1331 62.5959 47.3575 62.52 47.586 62.4113C47.6476 62.3876 47.8055 62.2957 48.0599 62.1355C48.3282 61.9575 48.6343 61.7587 48.9781 61.5392C49.3358 61.3018 49.7085 61.0545 50.096 60.7974C50.4816 60.5244 50.8304 60.28 51.1425 60.0644C51.1698 60.2867 51.077 60.5157 50.8641 60.7514C50.7508 60.8782 50.6205 60.999 50.4734 61.1137C50.3422 61.2266 50.204 61.3483 50.0588 61.479C49.8978 61.6116 49.7933 61.7453 49.7454 61.8802C49.6974 62.015 49.5711 62.1676 49.3663 62.3378C48.9866 62.6585 48.5721 62.9592 48.123 63.24C47.6739 63.5209 47.2646 63.7323 46.8952 63.8744C46.772 63.9218 46.639 63.9542 46.496 63.9718C46.369 63.9874 46.2449 64.0268 46.1237 64.09C45.9429 64.1928 45.79 64.1955 45.6652 64.098C45.5563 63.9985 45.4733 63.8475 45.4162 63.6449C45.2805 63.0651 45.1558 62.4437 45.0422 61.7806C44.9444 61.1156 44.8615 60.4406 44.7936 59.7558C44.321 59.8461 43.8783 59.9166 43.4654 59.9673C43.0665 60.0001 42.737 60.0083 42.4771 59.9919C42.235 59.9894 42.0068 59.969 41.7925 59.9309C41.5922 59.8749 41.4029 59.7772 41.2246 59.6379C41.0817 59.6554 41.0262 59.5978 41.0583 59.4649C41.1042 59.3141 41.1373 59.1892 41.1573 59.09C41.4889 59.0332 41.9713 58.9578 42.6046 58.8639C43.2518 58.7522 43.9466 58.6347 44.6891 58.5113C44.5908 57.1854 44.5518 55.9489 44.5722 54.8019C44.5925 53.6548 44.6798 52.7898 44.8338 52.2066C44.8163 52.0637 44.8602 51.9616 44.9655 51.9003C45.0847 51.8212 45.203 51.7341 45.3203 51.6391C45.3799 51.5996 45.4386 51.5521 45.4963 51.4966C45.5679 51.4234 45.6672 51.3789 45.7942 51.3633C45.9469 51.4252 46.0589 51.484 46.1302 51.5397C46.1996 51.5795 46.2392 51.6391 46.2489 51.7186C46.2587 51.798 46.2465 51.8962 46.2125 52.0132C46.1786 52.1302 46.1405 52.2799 46.0984 52.4624C46.0725 52.514 46.0493 52.7183 46.0286 53.0755C46.008 53.4327 45.9912 53.8861 45.978 54.4358C45.9789 54.9677 45.9815 55.5799 45.9859 56.2725C45.9884 56.9493 46.0078 57.632 46.044 58.3207C46.5681 58.2564 47.0693 58.2029 47.5476 58.1603C48.0241 58.1018 48.4469 58.066 48.816 58.0529L50.0037 58.0763Z" fill="white"/>
<path d="M54.6153 58.1872C54.9143 57.6024 55.2984 57.12 55.7676 56.7399C56.2348 56.3441 56.8048 56.129 57.4777 56.0947C57.5749 56.0989 57.683 56.1259 57.802 56.1758C57.919 56.2098 58.0281 56.2448 58.1292 56.2807C58.383 56.3785 58.6287 56.5418 58.8664 56.7705C59.1021 56.9834 59.3188 57.2389 59.5166 57.537C59.7284 57.8173 59.9103 58.1173 60.0624 58.4372C60.2145 58.757 60.332 59.057 60.4147 59.337C60.4679 59.5078 60.519 59.7272 60.5681 59.9952C60.6171 60.2632 60.6553 60.5084 60.6826 60.7307C60.6508 60.7346 60.6359 60.7445 60.6378 60.7604C60.6398 60.7763 60.6239 60.7782 60.5902 60.7662C60.4554 60.7183 60.3414 60.6436 60.2483 60.5422C60.2127 60.5144 60.1611 60.4884 60.0937 60.4645C60.0243 60.4246 59.9778 60.3739 59.9541 60.3124C59.9029 60.1575 59.8378 59.9559 59.759 59.7076C59.6941 59.4416 59.5955 59.1635 59.4631 58.8735C59.3308 58.5834 59.1756 58.3043 58.9976 58.036C58.8176 57.7518 58.6108 57.5112 58.377 57.3142C58.2879 57.2446 58.2096 57.1978 58.1421 57.1738C58.0886 57.132 58.0193 57.0922 57.934 57.0543C57.8468 57.0005 57.7228 56.9754 57.5621 56.979C57.3994 56.9668 57.2644 56.9833 57.1571 57.0288C56.8969 57.1413 56.6296 57.3273 56.3551 57.5867C56.0807 57.846 55.8528 58.1561 55.6714 58.5169C55.4881 58.8618 55.3751 59.2545 55.3325 59.695C55.2898 60.1355 55.3861 60.5911 55.6212 61.062C55.6864 61.1991 55.7328 61.3143 55.7604 61.4076C55.786 61.4851 55.7957 61.5645 55.7896 61.6458C55.7994 61.7252 55.7863 61.8155 55.7503 61.9166C55.7144 62.0178 55.6665 62.1526 55.6065 62.3212C55.5029 62.5273 55.3686 62.6809 55.2037 62.7817C55.0546 62.8806 54.9224 62.9855 54.8071 63.0964C54.1847 61.8348 53.6655 60.5606 53.2496 59.2737C52.8495 57.9848 52.5456 56.7567 52.3378 55.5894C52.1458 54.42 52.0539 53.3432 52.062 52.3589C52.0682 51.3587 52.1663 50.5164 52.3563 49.8322C52.3805 49.6358 52.474 49.5437 52.6367 49.556C52.7181 49.5621 52.7855 49.586 52.839 49.6278C52.8925 49.6696 52.9638 49.7254 53.053 49.795C53.1262 49.8666 53.1906 49.9313 53.246 49.9889C53.2995 50.0307 53.3401 50.0983 53.3676 50.1916C53.3933 50.2691 53.4378 50.3039 53.5014 50.2961C53.5649 50.2883 53.5936 50.3251 53.5875 50.4064C53.5518 51.2974 53.5559 52.119 53.5999 52.8713C53.6439 53.6235 53.7129 54.3163 53.8068 54.9496C53.9165 55.5809 54.0442 56.1617 54.1899 56.6919C54.3356 57.2221 54.4774 57.7205 54.6153 58.1872Z" fill="white"/>
<path d="M67.4593 53.8294C67.5841 53.9269 67.703 54.0413 67.8158 54.1725C67.9267 54.2878 68.0227 54.4131 68.1037 54.5482C68.2678 54.8343 68.3684 55.1283 68.4054 55.43C68.4564 55.7139 68.3882 56.0769 68.2006 56.5191C67.9853 56.9969 67.6817 57.413 67.29 57.7674C66.9141 58.1198 66.4849 58.366 66.0024 58.5058C65.6608 58.6122 65.3114 58.6551 64.9542 58.6345C64.5951 58.598 64.2421 58.4801 63.8953 58.2809C63.8097 58.372 63.7449 58.5009 63.7009 58.6675C63.6708 58.8163 63.6715 58.9532 63.703 59.0783C63.7621 59.2967 63.8717 59.5331 64.0319 59.7875C64.206 60.024 64.3783 60.1802 64.5488 60.256C64.8325 60.334 65.2066 60.2961 65.6714 60.1423C66.152 59.9866 66.6505 59.7803 67.1671 59.5234C67.6976 59.2487 68.2102 58.9601 68.705 58.6576C69.2138 58.3372 69.648 58.0662 70.0077 57.8448C70.0194 57.94 70.0033 58.0065 69.9596 58.0441C69.9317 58.0798 69.8909 58.1412 69.8371 58.2284C69.7675 58.3175 69.6919 58.4236 69.6102 58.5464C69.5286 58.6693 69.4291 58.7782 69.3118 58.8732C69.1647 58.988 69.0612 59.1297 69.0013 59.2982C68.9394 59.4509 68.8052 59.6044 68.5984 59.7588C68.3162 59.9546 68.027 60.1594 67.7308 60.3731C67.4486 60.5689 67.1654 60.7568 66.8812 60.9368C66.5951 61.1009 66.2981 61.2422 65.9902 61.3606C65.6963 61.4611 65.3965 61.5141 65.0908 61.5194C64.8805 61.5129 64.699 61.4788 64.5463 61.417C64.4095 61.3531 64.2361 61.2535 64.026 61.1181C63.921 61.0504 63.8001 60.9847 63.6633 60.9209C63.5265 60.8571 63.4214 60.7894 63.3482 60.7178C63.0294 60.3539 62.7951 59.9555 62.6453 59.5225C62.4934 59.0737 62.414 58.624 62.4071 58.1735C62.4141 57.7051 62.4786 57.2459 62.6006 56.7956C62.7207 56.3295 62.9012 55.8963 63.1422 55.4959C63.2757 55.27 63.4409 55.0401 63.6379 54.8064C63.8488 54.5548 64.0795 54.333 64.33 54.1411C64.5944 53.9313 64.8716 53.7602 65.1616 53.6279C65.4676 53.4936 65.7803 53.4149 66.0999 53.3918C66.2289 53.3921 66.3449 53.4181 66.448 53.47C66.565 53.504 66.6909 53.5449 66.8258 53.5928C66.9091 53.6148 67.0102 53.6508 67.1292 53.7007C67.2621 53.7327 67.3721 53.7756 67.4593 53.8294ZM66.9411 55.3197C66.8918 55.1806 66.7888 55.0643 66.6323 54.9707C66.4757 54.8771 66.3061 54.8092 66.1237 54.7672C65.9392 54.7092 65.7587 54.683 65.582 54.6886C65.4054 54.6941 65.2793 54.7177 65.2038 54.7592C65.0826 54.8224 64.9425 54.9283 64.7834 55.0768C64.6382 55.2075 64.496 55.3619 64.3567 55.5403C64.2333 55.7166 64.1118 55.9088 63.9923 56.117C63.8867 56.3073 63.8119 56.4857 63.7678 56.6523C63.7419 56.7039 63.7199 56.7872 63.7018 56.9022C63.6976 56.9995 63.7143 57.0699 63.7519 57.1137C63.9718 57.3285 64.2722 57.4125 64.6534 57.3657C65.0186 57.3209 65.397 57.1857 65.7884 56.9604C66.1958 56.733 66.4751 56.5133 66.6264 56.3013C66.6384 56.2676 66.6633 56.2081 66.7012 56.1229C66.755 56.0357 66.7998 55.9415 66.8358 55.8404C66.8717 55.7392 66.8997 55.6391 66.9198 55.5399C66.9557 55.4388 66.9628 55.3653 66.9411 55.3197Z" fill="white"/>
<path d="M84.4488 53.2909C84.5062 53.3644 84.5318 53.4419 84.5257 53.5232C84.5335 53.5868 84.5323 53.6433 84.5223 53.6929C84.4128 53.8514 84.3213 53.9594 84.2477 54.0168C84.1742 54.0742 84.048 54.1622 83.8691 54.2809C83.8254 54.3185 83.7816 54.3561 83.7379 54.3937C83.71 54.4294 83.6723 54.4502 83.6246 54.456C83.5452 54.4658 83.4104 54.4178 83.2201 54.3122C83.0457 54.2047 82.8554 54.0991 82.6492 53.9954C82.4431 53.8918 82.2249 53.8219 81.9948 53.7856C81.7805 53.7475 81.5929 53.7947 81.4318 53.9273C81.2864 54.187 81.1577 54.5171 81.0457 54.9177C80.9317 55.3025 80.8524 55.7072 80.8079 56.1318C80.7791 56.5544 80.807 56.9782 80.8914 57.4031C80.9758 57.8279 81.1516 58.2094 81.4188 58.5473C82.3516 58.5295 83.1509 58.2782 83.8168 57.7935C84.4807 57.2928 85.0774 56.7037 85.6067 56.0261C85.6204 56.1373 85.6013 56.2444 85.5495 56.3475C85.5116 56.4328 85.4747 56.526 85.4387 56.6271C85.3928 56.7778 85.3388 56.9295 85.277 57.0822C85.2291 57.2171 85.1494 57.3558 85.0379 57.4984C84.8449 57.764 84.619 58.0254 84.3605 58.2828C84.1178 58.5383 83.8484 58.7729 83.5522 58.9866C83.27 59.1825 82.968 59.3485 82.6462 59.4847C82.3383 59.6031 82.0236 59.666 81.7021 59.6732C81.5255 59.6788 81.3935 59.6547 81.3063 59.6009C81.2331 59.5293 81.1042 59.4645 80.9198 59.4065C80.8167 59.3547 80.6828 59.3147 80.5182 59.2866C80.3694 59.2565 80.2504 59.2066 80.1613 59.137C79.9791 58.9659 79.8317 58.7503 79.7191 58.49C79.5651 58.1543 79.4627 57.78 79.412 57.3671C79.3613 56.9542 79.3364 56.5543 79.3372 56.1673C79.352 55.7624 79.3875 55.3954 79.4438 55.0661C79.516 54.7348 79.581 54.477 79.639 54.2925C79.7089 54.0744 79.8304 53.8821 80.0034 53.7158C80.1745 53.5336 80.3634 53.3653 80.5701 53.211C80.7927 53.0547 81.0163 52.9063 81.2409 52.7659C81.4654 52.6255 81.6751 52.495 81.8698 52.3743C82.6798 52.2749 83.5394 52.5804 84.4488 53.2909Z" fill="white"/>
<path d="M89.8771 53.8576C90.1761 53.2728 90.5601 52.7904 91.0293 52.4103C91.4966 52.0145 92.0666 51.7994 92.7394 51.7651C92.8367 51.7693 92.9448 51.7963 93.0637 51.8462C93.1808 51.8802 93.2898 51.9152 93.391 51.9511C93.6448 52.0489 93.8905 52.2122 94.1282 52.4409C94.3639 52.6538 94.5806 52.9093 94.7784 53.2074C94.9901 53.4877 95.1721 53.7877 95.3242 54.1076C95.4763 54.4274 95.5937 54.7274 95.6765 55.0074C95.7297 55.1782 95.7808 55.3976 95.8298 55.6656C95.8788 55.9336 95.917 56.1788 95.9443 56.4011C95.9126 56.405 95.8977 56.4149 95.8996 56.4308C95.9016 56.4467 95.8857 56.4486 95.852 56.4366C95.7171 56.3887 95.6032 56.314 95.5101 56.2126C95.4744 56.1848 95.4229 56.1588 95.3555 56.1349C95.2861 56.095 95.2396 56.0443 95.2159 55.9828C95.1646 55.8279 95.0996 55.6263 95.0207 55.378C94.9558 55.112 94.8572 54.8339 94.7249 54.5439C94.5926 54.2538 94.4374 53.9747 94.2593 53.7064C94.0794 53.4222 93.8725 53.1816 93.6388 52.9846C93.5496 52.915 93.4713 52.8682 93.4039 52.8442C93.3504 52.8024 93.281 52.7626 93.1958 52.7247C93.1086 52.6709 92.9846 52.6458 92.8238 52.6494C92.6611 52.6372 92.5261 52.6537 92.4189 52.6992C92.1587 52.8117 91.8913 52.9977 91.6169 53.2571C91.3425 53.5164 91.1145 53.8265 90.9332 54.1873C90.7498 54.5322 90.6369 54.9249 90.5942 55.3654C90.5516 55.8059 90.6478 56.2615 90.883 56.7324C90.9481 56.8695 90.9945 56.9847 91.0221 57.078C91.0477 57.1555 91.0575 57.2349 91.0514 57.3162C91.0611 57.3956 91.048 57.4859 91.0121 57.587C90.9761 57.6882 90.9282 57.823 90.8683 57.9916C90.7647 58.1977 90.6304 58.3513 90.4654 58.4521C90.3164 58.551 90.1842 58.6559 90.0688 58.7668C89.4464 57.5052 88.9273 56.231 88.5113 54.9441C88.1113 53.6552 87.8074 52.4271 87.5995 51.2598C87.4076 50.0904 87.3157 49.0136 87.3238 48.0293C87.3299 47.0291 87.428 46.1868 87.6181 45.5026C87.6423 45.3062 87.7358 45.2141 87.8985 45.2264C87.9798 45.2325 88.0473 45.2564 88.1008 45.2982C88.1542 45.34 88.2256 45.3958 88.3147 45.4654C88.388 45.537 88.4523 45.6017 88.5078 45.6593C88.5613 45.7011 88.6018 45.7687 88.6294 45.862C88.655 45.9395 88.6996 45.9743 88.7631 45.9665C88.8266 45.9587 88.8553 45.9955 88.8492 46.0768C88.8135 46.9678 88.8177 47.7894 88.8617 48.5417C88.9057 49.2939 88.9746 49.9867 89.0685 50.62C89.1783 51.2513 89.306 51.8321 89.4517 52.3623C89.5974 52.8925 89.7392 53.3909 89.8771 53.8576Z" fill="white"/>
<path d="M104.702 48.8939C104.72 49.0368 104.766 49.2165 104.841 49.433C104.914 49.6336 104.918 49.8023 104.855 49.9391C104.827 49.9747 104.819 50.0402 104.83 50.1355C104.84 50.2149 104.823 50.2734 104.779 50.311L104.446 50.1585C104.177 50.0626 103.884 50.0421 103.568 50.097C103.268 50.1499 102.967 50.2594 102.665 50.4255C102.455 50.548 102.249 50.7103 102.048 50.9123C101.861 51.0965 101.685 51.3035 101.52 51.5333C101.355 51.7632 101.206 51.999 101.075 52.2408C100.943 52.4827 100.835 52.7136 100.749 52.9337C100.551 53.4255 100.493 53.9969 100.572 54.648C100.668 55.2972 101.01 56.1096 101.597 57.0853C101.611 57.1965 101.548 57.3412 101.409 57.5195C101.381 57.5552 101.347 57.6077 101.307 57.6771C101.267 57.7464 101.233 57.799 101.206 57.8346C101.092 57.9614 101.024 58.0664 101.002 58.1497C100.996 58.2311 100.955 58.2925 100.88 58.334C100.759 58.3973 100.626 58.3007 100.482 58.0444C100.153 57.6011 99.82 57.0536 99.4821 56.402C99.1581 55.7325 98.8401 55.0461 98.528 54.3429C98.2319 53.6377 97.9555 52.9624 97.699 52.3168C97.4563 51.6535 97.2591 51.0973 97.1072 50.6485C97.044 50.5273 97.0214 50.4092 97.0395 50.2941C97.0557 50.1632 97.0907 50.0541 97.1444 49.9669C97.1843 49.8975 97.2379 49.8748 97.3053 49.8988C97.3886 49.9208 97.4541 49.9289 97.5018 49.923C97.7082 49.8977 97.8401 49.9218 97.8975 49.9953C97.9549 50.0689 98.047 50.1624 98.1738 50.2758C98.4273 50.5025 98.6439 50.8225 98.8236 51.2357C99.0033 51.6489 99.2245 52.1376 99.4872 52.7018C99.6886 52.2418 99.9635 51.7889 100.312 51.3431C100.676 50.8954 101.077 50.4835 101.514 50.1074C101.95 49.7154 102.409 49.385 102.892 49.1161C103.374 48.8473 103.851 48.6598 104.322 48.5537C104.415 48.5261 104.498 48.5481 104.572 48.6197C104.659 48.6735 104.702 48.7649 104.702 48.8939Z" fill="white"/>
<path d="M110.289 49.03L109.933 49.4847C110.059 49.4532 110.245 49.3981 110.493 49.3192C110.756 49.2226 111.014 49.1586 111.268 49.1274C111.462 49.1358 111.629 49.1798 111.768 49.2595C111.906 49.3392 112.008 49.5121 112.073 49.7781C112.183 50.1515 112.327 50.5288 112.502 50.9103C112.692 51.2739 112.842 51.6423 112.952 52.0157C113.079 52.387 113.123 52.7523 113.087 53.1114C113.048 53.4547 112.871 53.7827 112.555 54.0956C112.258 54.6963 111.91 55.2145 111.513 55.6502C111.129 56.0681 110.702 56.3381 110.234 56.4601C109.922 56.5467 109.568 56.5499 109.171 56.4697C108.772 56.3736 108.465 56.1695 108.25 55.8574C108.206 55.895 108.167 55.9079 108.133 55.8959C108.098 55.868 108.062 55.8402 108.026 55.8123C107.991 55.7844 107.958 55.7804 107.928 55.8002C107.914 55.818 107.897 55.812 107.878 55.7822C107.856 55.7365 107.84 55.674 107.83 55.5946L107.825 55.5469L107.819 55.4993C107.766 54.9415 107.746 54.3798 107.757 53.8142C107.782 53.2308 107.85 52.6664 107.96 52.1209C108.084 51.5575 108.261 51.028 108.49 50.5324C108.734 50.0189 109.063 49.5513 109.479 49.1295C109.626 49.0147 109.797 48.9615 109.991 48.9698C110.023 48.9659 110.063 48.9611 110.11 48.9552C110.158 48.9494 110.217 48.9743 110.289 49.03ZM109.678 50.7493C109.58 50.7451 109.521 50.7202 109.499 50.6745C109.477 50.6288 109.471 50.5732 109.479 50.5078C109.501 50.4244 109.522 50.3332 109.542 50.234C109.578 50.1329 109.59 50.0347 109.578 49.9394C109.282 50.2821 109.065 50.6795 108.927 51.1317C108.805 51.5819 108.732 52.0422 108.709 52.5125C108.684 52.9669 108.698 53.4085 108.751 53.8372C108.82 54.2641 108.889 54.6344 108.96 54.9481C109.025 55.2141 109.108 55.4296 109.209 55.5946C109.308 55.7436 109.438 55.8243 109.601 55.8366C109.782 55.8628 110.006 55.7868 110.274 55.6088C110.662 55.3517 110.96 55.0249 111.17 54.6284C111.379 54.232 111.537 53.8175 111.646 53.3851C111.682 53.155 111.697 52.8871 111.692 52.5815C111.701 52.258 111.657 51.9652 111.56 51.703C111.436 51.3475 111.197 51.1108 110.844 50.993C110.505 50.8573 110.116 50.7761 109.678 50.7493Z" fill="white"/>
<path d="M115.957 47.923C116.103 48.3242 116.195 48.7481 116.234 49.1947C116.273 49.6413 116.304 50.0968 116.329 50.5613C116.368 51.0079 116.424 51.4605 116.496 51.9191C116.582 52.3598 116.753 52.7661 117.008 53.1377C117.262 52.1877 117.662 51.3084 118.208 50.4999C118.751 49.6755 119.344 48.9256 119.987 48.2503C120.072 48.1592 120.162 48.0999 120.255 48.0723C120.362 48.0269 120.462 47.9824 120.553 47.939C120.629 47.8975 120.697 47.8649 120.759 47.8412C120.834 47.7997 120.939 47.8029 121.074 47.8508C121.413 47.9865 121.637 48.2976 121.745 48.784C121.853 49.2705 121.963 49.9663 122.074 50.8715C122.283 50.604 122.489 50.3128 122.692 49.9977C122.909 49.6647 123.128 49.3477 123.349 49.0465C123.57 48.7453 123.803 48.4749 124.047 48.2353C124.292 47.9958 124.559 47.8098 124.849 47.6775C124.941 47.634 125.036 47.6223 125.135 47.6424C125.248 47.6446 125.352 47.6399 125.448 47.6282C125.511 47.6204 125.566 47.6056 125.612 47.5839C125.655 47.5462 125.71 47.5315 125.775 47.5396C125.873 47.5437 125.958 47.5816 126.031 47.6532C126.12 47.7229 126.187 47.8034 126.23 47.8948C126.323 48.1252 126.451 48.448 126.615 48.8631C126.777 49.2624 126.925 49.6794 127.059 50.1144C127.207 50.5314 127.328 50.9276 127.422 51.3029C127.517 51.6782 127.55 51.9482 127.522 52.1128C127.508 52.2596 127.48 52.3598 127.438 52.4133C127.412 52.4648 127.343 52.5619 127.232 52.7046C127.2 52.7085 127.163 52.7372 127.121 52.7907C127.095 52.8422 127.062 52.8947 127.02 52.9482C126.964 53.0195 126.916 53.0899 126.876 53.1593C126.633 52.8829 126.434 52.5768 126.28 52.2411C126.126 51.9054 125.986 51.5518 125.86 51.1804C125.734 50.809 125.614 50.4287 125.502 50.0395C125.39 49.6503 125.261 49.2551 125.115 48.8539C124.683 49.1486 124.352 49.4714 124.121 49.8222C123.904 50.1551 123.738 50.506 123.622 50.8749C123.504 51.2279 123.403 51.5869 123.319 51.9518C123.235 52.3168 123.117 52.6698 122.965 53.0108C122.824 53.3022 122.675 53.5381 122.52 53.7183C122.365 53.8986 122.231 53.9876 122.118 53.9854C122.02 53.9812 121.938 53.9026 121.871 53.7497C121.804 53.5967 121.711 53.3663 121.593 53.0584C121.354 52.4268 121.117 51.7466 120.883 51.0177C120.664 50.2869 120.438 49.6296 120.205 49.0456C119.915 49.1779 119.635 49.3897 119.365 49.6808C119.108 49.9541 118.873 50.2731 118.66 50.6378C118.445 50.9866 118.258 51.3722 118.101 51.7946C117.959 52.215 117.865 52.6296 117.818 53.0383C118.075 53.4258 118.125 53.7663 117.968 54.0597C117.904 54.1965 117.806 54.3213 117.675 54.4341C117.542 54.5311 117.386 54.6389 117.207 54.7576C117.11 54.8824 116.995 54.9367 116.865 54.9205C116.734 54.9044 116.622 54.8456 116.528 54.7442C116.433 54.6269 116.373 54.5295 116.348 54.4521C116.19 53.9556 116.03 53.4432 115.869 52.915C115.705 52.3708 115.573 51.8228 115.473 51.2709C115.389 50.717 115.346 50.1662 115.343 49.6184C115.338 49.0548 115.408 48.5062 115.552 47.9727C115.572 47.8735 115.598 47.822 115.63 47.8181C115.661 47.8142 115.695 47.8262 115.731 47.854C115.765 47.866 115.798 47.878 115.832 47.89C115.866 47.902 115.883 47.9079 115.883 47.9079C115.898 47.906 115.923 47.911 115.957 47.923Z" fill="white"/>
<path d="M134.884 45.5506C135.009 45.6482 135.128 45.7625 135.241 45.8938C135.352 46.0091 135.448 46.1343 135.529 46.2695C135.693 46.5556 135.793 46.8495 135.83 47.1513C135.881 47.4352 135.813 47.7982 135.626 48.2404C135.41 48.7182 135.107 49.1343 134.715 49.4886C134.339 49.8411 133.91 50.0872 133.427 50.2271C133.086 50.3335 132.736 50.3764 132.379 50.3558C132.02 50.3193 131.667 50.2014 131.32 50.0022C131.235 50.0933 131.17 50.2221 131.126 50.3887C131.096 50.5375 131.096 50.6745 131.128 50.7996C131.187 51.018 131.297 51.2544 131.457 51.5088C131.631 51.7453 131.803 51.9015 131.974 51.9773C132.257 52.0553 132.632 52.0174 133.096 51.8636C133.577 51.7079 134.075 51.5016 134.592 51.2447C135.122 50.97 135.635 50.6814 136.13 50.3788C136.639 50.0584 137.073 49.7875 137.433 49.566C137.444 49.6613 137.428 49.7277 137.385 49.7654C137.357 49.801 137.316 49.8625 137.262 49.9497C137.192 50.0388 137.117 50.1448 137.035 50.2677C136.953 50.3905 136.854 50.4995 136.737 50.5945C136.59 50.7093 136.486 50.8509 136.426 51.0195C136.364 51.1722 136.23 51.3257 136.023 51.48C135.741 51.6759 135.452 51.8807 135.156 52.0943C134.874 52.2902 134.59 52.4781 134.306 52.6581C134.02 52.8222 133.723 52.9634 133.415 53.0818C133.121 53.1824 132.821 53.2353 132.516 53.2406C132.305 53.2342 132.124 53.2001 131.971 53.1382C131.834 53.0744 131.661 52.9748 131.451 52.8394C131.346 52.7717 131.225 52.7059 131.088 52.6421C130.951 52.5783 130.846 52.5106 130.773 52.439C130.454 52.0751 130.22 51.6767 130.07 51.2438C129.918 50.7949 129.839 50.3453 129.832 49.8947C129.839 49.4264 129.903 48.9671 130.026 48.5169C130.146 48.0508 130.326 47.6175 130.567 47.2172C130.701 46.9912 130.866 46.7614 131.063 46.5276C131.274 46.2761 131.504 46.0543 131.755 45.8623C132.019 45.6526 132.297 45.4815 132.587 45.3492C132.892 45.2149 133.205 45.1362 133.525 45.1131C133.654 45.1133 133.77 45.1394 133.873 45.1912C133.99 45.2252 134.116 45.2662 134.251 45.3141C134.334 45.3361 134.435 45.3721 134.554 45.4219C134.687 45.454 134.797 45.4969 134.884 45.5506ZM134.366 47.0409C134.317 46.9019 134.214 46.7856 134.057 46.692C133.901 46.5983 133.731 46.5305 133.549 46.4884C133.364 46.4305 133.184 46.4043 133.007 46.4098C132.83 46.4154 132.704 46.4389 132.629 46.4805C132.508 46.5437 132.367 46.6496 132.208 46.7981C132.063 46.9287 131.921 47.0832 131.782 47.2615C131.658 47.4379 131.537 47.6301 131.417 47.8382C131.312 48.0285 131.237 48.207 131.193 48.3736C131.167 48.4251 131.145 48.5084 131.127 48.6235C131.123 48.7207 131.139 48.7912 131.177 48.8349C131.397 49.0498 131.697 49.1338 132.078 49.087C132.444 49.0421 132.822 48.907 133.213 48.6816C133.621 48.4543 133.9 48.2346 134.051 48.0226C134.063 47.9889 134.088 47.9294 134.126 47.8441C134.18 47.7569 134.225 47.6628 134.261 47.5616C134.297 47.4605 134.325 47.3603 134.345 47.2612C134.381 47.16 134.388 47.0866 134.366 47.0409Z" fill="white"/>
<path d="M9.67022 82.0827C9.79503 82.1802 9.91386 82.2946 10.0267 82.4258C10.1376 82.5412 10.2336 82.6664 10.3146 82.8015C10.4787 83.0877 10.5793 83.3816 10.6163 83.6833C10.6673 83.9672 10.5991 84.3303 10.4115 84.7724C10.1962 85.2502 9.89261 85.6663 9.50088 86.0207C9.12503 86.3731 8.69582 86.6193 8.21327 86.7591C7.87169 86.8655 7.52232 86.9084 7.16514 86.8878C6.80602 86.8513 6.45302 86.7334 6.10616 86.5342C6.02062 86.6253 5.95584 86.7542 5.91182 86.9208C5.88173 87.0696 5.88242 87.2065 5.9139 87.3316C5.97296 87.55 6.08259 87.7864 6.24278 88.0408C6.41691 88.2774 6.58922 88.4335 6.75973 88.5093C7.04335 88.5873 7.41753 88.5494 7.88225 88.3957C8.36285 88.2399 8.86143 88.0336 9.37797 87.7768C9.90845 87.5021 10.4211 87.2134 10.9159 86.9109C11.4247 86.5905 11.8589 86.3196 12.2186 86.0981C12.2303 86.1934 12.2142 86.2598 12.1705 86.2974C12.1426 86.3331 12.1018 86.3945 12.048 86.4817C11.9784 86.5709 11.9027 86.6769 11.8211 86.7997C11.7395 86.9226 11.64 87.0315 11.5227 87.1265C11.3756 87.2413 11.2721 87.383 11.2122 87.5516C11.1503 87.7042 11.0161 87.8577 10.8093 88.0121C10.5271 88.2079 10.2379 88.4127 9.94172 88.6264C9.65948 88.8223 9.37627 89.0102 9.09209 89.1901C8.80595 89.3542 8.50895 89.4955 8.20109 89.6139C7.90715 89.7145 7.60737 89.7674 7.30174 89.7727C7.09139 89.7663 6.90987 89.7321 6.7572 89.6703C6.6204 89.6065 6.44697 89.5069 6.2369 89.3715C6.13187 89.3037 6.01095 89.238 5.87416 89.1742C5.73736 89.1104 5.63233 89.0427 5.55906 88.9711C5.24034 88.6072 5.00603 88.2088 4.85615 87.7758C4.70432 87.327 4.62493 86.8773 4.61797 86.4268C4.62495 85.9585 4.68946 85.4992 4.8115 85.0489C4.93159 84.5828 5.11213 84.1496 5.35314 83.7492C5.4866 83.5233 5.65182 83.2934 5.8488 83.0597C6.05971 82.8081 6.29041 82.5864 6.54088 82.3944C6.80528 82.1846 7.0825 82.0136 7.37254 81.8812C7.67845 81.7469 7.99119 81.6682 8.31076 81.6451C8.43975 81.6454 8.55579 81.6715 8.65888 81.7233C8.77589 81.7573 8.90182 81.7982 9.03667 81.8462C9.11997 81.8682 9.22111 81.9041 9.34007 81.954C9.47297 81.986 9.58302 82.0289 9.67022 82.0827ZM9.15197 83.573C9.10266 83.4339 8.99972 83.3176 8.84314 83.224C8.68657 83.1304 8.51704 83.0625 8.33455 83.0205C8.15011 82.9625 7.96957 82.9363 7.79293 82.9419C7.6163 82.9475 7.49023 82.971 7.41472 83.0125C7.29353 83.0758 7.15338 83.1816 6.99429 83.3301C6.84914 83.4608 6.7069 83.6153 6.56759 83.7936C6.44417 83.9699 6.32269 84.1622 6.20316 84.3703C6.09756 84.5606 6.02275 84.739 5.97873 84.9056C5.95282 84.9572 5.93081 85.0405 5.91269 85.1555C5.90851 85.2528 5.92523 85.3233 5.96284 85.367C6.18266 85.5818 6.48313 85.6658 6.86427 85.619C7.22953 85.5742 7.60788 85.4391 7.99933 85.2137C8.40666 84.9863 8.68597 84.7667 8.83726 84.5546C8.84925 84.5209 8.87418 84.4614 8.91207 84.3762C8.96585 84.289 9.01071 84.1948 9.04665 84.0937C9.08259 83.9926 9.11059 83.8924 9.13066 83.7932C9.1666 83.6921 9.1737 83.6187 9.15197 83.573Z" fill="white"/>
<path d="M21.0799 80.4642C20.5505 81.1417 20.0239 81.9076 19.5001 82.7618C18.9903 83.5982 18.4706 84.3551 17.9413 85.0327L19.816 86.7128L19.9046 87.0404C20.0313 87.1538 20.0986 87.2423 20.1064 87.3058C20.1301 87.3674 20.1339 87.4636 20.1177 87.5946C20.1213 87.7553 20.11 87.926 20.0838 88.1065C20.0677 88.2375 20.0784 88.3248 20.116 88.3685C20.1536 88.4123 20.1426 88.4539 20.083 88.4935L19.6283 88.1383C19.2756 87.8914 18.8942 87.6078 18.4841 87.2874C18.0879 86.9491 17.7175 86.6238 17.3729 86.3115C17.2773 86.4522 17.1498 86.6613 16.9905 86.9388C16.8291 87.2004 16.6618 87.4789 16.4885 87.7742C16.3311 88.0676 16.1737 88.3609 16.0163 88.6543C15.8728 88.9298 15.7701 89.144 15.7083 89.2966L16.4049 89.2594L15.0275 90.2507C14.8909 90.0579 14.7863 89.7967 14.7136 89.4671C14.6763 89.2944 14.6725 89.1981 14.7023 89.1783C14.7322 89.1586 14.7493 89.0356 14.7538 88.8093C14.7657 88.7756 14.7748 88.7181 14.7809 88.6367C14.801 88.5375 14.8131 88.4393 14.8173 88.3421C14.8373 88.2429 14.8504 88.1526 14.8566 88.0713C14.8786 87.988 14.9026 87.9206 14.9285 87.869C15.0321 87.6628 15.1497 87.4388 15.2812 87.197C15.4286 86.9532 15.569 86.7184 15.7025 86.4924C15.834 86.2506 15.9525 86.0345 16.0581 85.8443C16.1796 85.652 16.2583 85.5053 16.2943 85.4042C16.1318 85.2629 15.9347 85.1018 15.7029 84.9207C15.487 84.7376 15.2622 84.5476 15.0284 84.3506C14.7947 84.1536 14.5619 83.9646 14.3301 83.7835C14.1122 83.5846 13.9211 83.4065 13.7567 83.2494C13.6141 83.1379 13.4923 82.9997 13.3915 82.8348C13.2887 82.654 13.2742 82.4704 13.348 82.284C13.4118 82.1472 13.4834 82.0739 13.5629 82.0642C13.6562 82.0366 13.7565 82.0001 13.8638 81.9547C14.0306 81.8697 14.1587 81.8621 14.2478 81.9317C14.335 81.9855 14.4499 82.0681 14.5926 82.1795C14.9968 82.4523 15.4149 82.7717 15.8467 83.1378C16.2786 83.5039 16.648 83.8213 16.955 84.0899C17.4189 83.4042 17.8569 82.7701 18.269 82.1876C18.681 81.605 19.1445 81.1128 19.6594 80.7111C19.6873 80.6754 19.7727 80.6488 19.9156 80.6313C20.0585 80.6137 20.1449 80.5951 20.1747 80.5753C20.2978 80.5279 20.3832 80.5013 20.4309 80.4955C20.4944 80.4877 20.5808 80.469 20.69 80.4395C20.831 80.4061 20.9332 80.3854 20.9967 80.3776C21.0761 80.3679 21.1038 80.3967 21.0799 80.4642Z" fill="white"/>
<path d="M32.2918 81.4088C32.3274 81.4367 32.3532 81.4496 32.3691 81.4477C32.385 81.4457 32.3949 81.4606 32.3988 81.4924C32.3868 81.5261 32.3519 81.5707 32.2943 81.6261C32.2505 81.6637 32.1582 81.6993 32.0172 81.7327C31.9715 81.7544 31.9119 81.794 31.8383 81.8514C31.7628 81.8929 31.7022 81.9245 31.6565 81.9462C31.2395 82.0942 30.742 82.2439 30.1642 82.3955C29.6022 82.5451 29.0154 82.6896 28.4039 82.8292C28.4404 83.3889 28.4879 83.907 28.5464 84.3834C28.6207 84.8579 28.6953 85.2679 28.7699 85.6134C28.8348 85.8794 28.9785 85.9988 29.2008 85.9715C29.4212 85.9283 29.6456 85.8524 29.8741 85.7438C29.9356 85.7201 30.0936 85.6282 30.348 85.468C30.6163 85.2899 30.9223 85.0912 31.2661 84.8716C31.6239 84.6342 31.9965 84.387 32.3841 84.1298C32.7697 83.8568 33.1185 83.6125 33.4305 83.3968C33.4578 83.6192 33.3651 83.8482 33.1522 84.0839C33.0388 84.2107 32.9085 84.3314 32.7614 84.4462C32.6302 84.559 32.492 84.6808 32.3469 84.8115C32.1858 84.9441 32.0813 85.0778 32.0334 85.2126C31.9855 85.3475 31.8591 85.5 31.6544 85.6703C31.2746 85.9909 30.8602 86.2917 30.411 86.5725C29.9619 86.8533 29.5526 87.0648 29.1832 87.2069C29.0601 87.2542 28.927 87.2867 28.7841 87.3042C28.6571 87.3198 28.5329 87.3593 28.4117 87.4225C28.2309 87.5253 28.0781 87.5279 27.9533 87.4304C27.8443 87.331 27.7613 87.1799 27.7042 86.9774C27.5685 86.3976 27.4439 85.7762 27.3302 85.1131C27.2325 84.448 27.1496 83.7731 27.0816 83.0883C26.6091 83.1785 26.1664 83.249 25.7535 83.2997C25.3545 83.3326 25.0251 83.3408 24.7651 83.3244C24.523 83.3218 24.2948 83.3015 24.0806 83.2633C23.8803 83.2073 23.6909 83.1097 23.5126 82.9704C23.3697 82.9879 23.3143 82.9302 23.3463 82.7973C23.3923 82.6466 23.4253 82.5217 23.4454 82.4225C23.7769 82.3656 24.2593 82.2903 24.8926 82.1964C25.5398 82.0847 26.2347 81.9671 26.9772 81.8437C26.8788 80.5178 26.8399 79.2814 26.8602 78.1343C26.8806 76.9873 26.9678 76.1222 27.1219 75.5391C27.1044 75.3962 27.1482 75.2941 27.2535 75.2328C27.3728 75.1537 27.4911 75.0666 27.6084 74.9716C27.668 74.932 27.7266 74.8845 27.7843 74.8291C27.8559 74.7558 27.9552 74.7114 28.0823 74.6958C28.235 74.7576 28.347 74.8164 28.4183 74.8721C28.4877 74.912 28.5272 74.9716 28.537 75.051C28.5467 75.1304 28.5346 75.2286 28.5006 75.3456C28.4666 75.4627 28.4286 75.6124 28.3865 75.7949C28.3606 75.8464 28.3373 76.0508 28.3167 76.408C28.2961 76.7651 28.2792 77.2186 28.2661 77.7683C28.2669 78.3001 28.2696 78.9124 28.274 79.605C28.2765 80.2817 28.2958 80.9645 28.332 81.6532C28.8561 81.5889 29.3573 81.5354 29.8357 81.4928C30.3121 81.4343 30.7349 81.3985 31.1041 81.3854L32.2918 81.4088Z" fill="white"/>
<path d="M39.9258 78.3678C40.0506 78.4653 40.1695 78.5797 40.2823 78.7109C40.3932 78.8262 40.4892 78.9515 40.5702 79.0866C40.7343 79.3727 40.8349 79.6667 40.8719 79.9684C40.9229 80.2523 40.8547 80.6153 40.6671 81.0575C40.4518 81.5353 40.1482 81.9514 39.7565 82.3058C39.3806 82.6582 38.9514 82.9043 38.4689 83.0442C38.1273 83.1506 37.7779 83.1935 37.4207 83.1729C37.0616 83.1364 36.7086 83.0185 36.3618 82.8193C36.2762 82.9104 36.2114 83.0393 36.1674 83.2059C36.1373 83.3547 36.138 83.4916 36.1695 83.6167C36.2286 83.8351 36.3382 84.0715 36.4984 84.3259C36.6725 84.5624 36.8448 84.7186 37.0153 84.7944C37.299 84.8724 37.6731 84.8345 38.1378 84.6807C38.6185 84.525 39.117 84.3187 39.6336 84.0618C40.164 83.7872 40.6767 83.4985 41.1715 83.196C41.6803 82.8756 42.1145 82.6046 42.4742 82.3831C42.4859 82.4784 42.4698 82.5449 42.4261 82.5825C42.3982 82.6182 42.3574 82.6796 42.3036 82.7668C42.234 82.8559 42.1583 82.962 42.0767 83.0848C41.9951 83.2077 41.8956 83.3166 41.7783 83.4116C41.6312 83.5264 41.5277 83.6681 41.4678 83.8366C41.4059 83.9893 41.2717 84.1428 41.0649 84.2972C40.7827 84.493 40.4935 84.6978 40.1973 84.9115C39.9151 85.1073 39.6319 85.2952 39.3477 85.4752C39.0616 85.6393 38.7646 85.7806 38.4567 85.899C38.1628 85.9995 37.863 86.0525 37.5573 86.0578C37.347 86.0513 37.1655 86.0172 37.0128 85.9553C36.876 85.8915 36.7026 85.7919 36.4925 85.6565C36.3875 85.5888 36.2666 85.5231 36.1298 85.4593C35.993 85.3955 35.8879 85.3278 35.8147 85.2562C35.4959 84.8923 35.2616 84.4939 35.1118 84.0609C34.9599 83.6121 34.8805 83.1624 34.8736 82.7119C34.8805 82.2435 34.9451 81.7843 35.0671 81.334C35.1872 80.8679 35.3677 80.4347 35.6087 80.0343C35.7422 79.8084 35.9074 79.5785 36.1044 79.3448C36.3153 79.0932 36.546 78.8714 36.7965 78.6795C37.0609 78.4697 37.3381 78.2986 37.6281 78.1663C37.9341 78.032 38.2468 77.9533 38.5664 77.9302C38.6954 77.9305 38.8114 77.9565 38.9145 78.0084C39.0315 78.0423 39.1574 78.0833 39.2923 78.1312C39.3756 78.1532 39.4767 78.1892 39.5957 78.2391C39.7286 78.2711 39.8386 78.314 39.9258 78.3678ZM39.4076 79.8581C39.3583 79.719 39.2553 79.6027 39.0987 79.5091C38.9422 79.4155 38.7726 79.3476 38.5901 79.3056C38.4057 79.2476 38.2252 79.2214 38.0485 79.227C37.8719 79.2325 37.7458 79.2561 37.6703 79.2976C37.5491 79.3608 37.409 79.4667 37.2499 79.6152C37.1047 79.7459 36.9625 79.9003 36.8232 80.0787C36.6998 80.255 36.5783 80.4472 36.4588 80.6554C36.3532 80.8457 36.2784 81.0241 36.2343 81.1907C36.2084 81.2422 36.1864 81.3255 36.1683 81.4406C36.1641 81.5378 36.1808 81.6083 36.2184 81.6521C36.4383 81.8669 36.7387 81.9509 37.1199 81.9041C37.4851 81.8593 37.8635 81.7241 38.2549 81.4988C38.6623 81.2714 38.9416 81.0517 39.0929 80.8397C39.1048 80.806 39.1298 80.7465 39.1677 80.6613C39.2214 80.5741 39.2663 80.4799 39.3022 80.3788C39.3382 80.2776 39.3662 80.1775 39.3863 80.0783C39.4222 79.9772 39.4293 79.9037 39.4076 79.8581Z" fill="white"/>
<path d="M45.8143 81.8038C46.0511 81.5006 46.286 81.1816 46.5189 80.8468C46.7658 80.494 47.0225 80.1562 47.2892 79.8333C47.5558 79.5104 47.8343 79.2183 48.1246 78.957C48.413 78.6798 48.7231 78.4483 49.0549 78.2624C49.1304 78.2209 49.2009 78.2042 49.2664 78.2123C49.3477 78.2184 49.4261 78.2007 49.5017 78.1592C49.6287 78.1436 49.7399 78.13 49.8351 78.1183C49.9304 78.1066 50.0217 78.1276 50.1089 78.1814C50.3488 78.297 50.5488 78.482 50.709 78.7364C50.8831 78.9729 51.0373 79.2442 51.1716 79.5501C51.2566 79.717 51.3088 79.8798 51.3283 80.0386C51.3637 80.1955 51.4338 80.3723 51.5385 80.569C51.6708 80.859 51.8121 81.156 51.9623 81.46C52.1263 81.7461 52.2101 82.034 52.2134 82.3238C52.2073 82.4051 52.1922 82.4795 52.1683 82.547C52.1423 82.5985 52.1104 82.6669 52.0726 82.7522C52.0486 82.8196 52.0028 82.9058 51.9351 83.0108C51.8673 83.1159 51.7967 83.1971 51.7232 83.2545C51.6516 83.3277 51.6028 83.3902 51.5769 83.4417C51.5649 83.4754 51.4983 83.5239 51.3771 83.5871C51.1336 83.3107 50.9348 83.0047 50.7808 82.669C50.6267 82.3332 50.4866 81.9797 50.3604 81.6083C50.2342 81.2369 50.115 80.8566 50.0027 80.4674C49.8904 80.0782 49.7613 79.6829 49.6153 79.2817C49.5699 79.1745 49.4589 79.1236 49.2822 79.1292C49.1215 79.1328 48.9377 79.2118 48.731 79.3661C48.5382 79.5027 48.3383 79.7126 48.1313 79.9959C47.9243 80.2793 47.7498 80.6311 47.608 81.0516C47.5161 81.353 47.434 81.6694 47.3619 82.0006C47.2877 82.316 47.1987 82.6413 47.0948 82.9765C47.0048 83.2938 46.883 83.615 46.7295 83.9402C46.5899 84.2475 46.4077 84.5358 46.1829 84.8052C46.1132 84.8944 46.0586 84.9091 46.019 84.8495C45.9795 84.7899 45.8932 84.7441 45.7604 84.712C45.6612 84.692 45.6017 84.667 45.5819 84.6372C45.578 84.6055 45.5425 84.5131 45.4753 84.3601C45.3391 84.0383 45.1891 83.6699 45.0253 83.2547C44.8773 82.8377 44.7106 82.3987 44.5251 81.9379C44.3554 81.4751 44.1778 81.0133 43.9923 80.5525C43.8048 80.0758 43.6212 79.6308 43.4415 79.2177L43.2459 78.8064C43.2699 78.739 43.3186 78.6766 43.3922 78.6192C43.4816 78.5599 43.572 78.5085 43.6634 78.465C43.7548 78.4216 43.859 78.4168 43.976 78.4508C44.093 78.4848 44.1833 78.4979 44.2468 78.4901C44.4215 78.4686 44.586 78.5613 44.7404 78.768C44.9106 78.9728 45.0648 79.244 45.203 79.5817C45.3392 79.9035 45.4565 80.2679 45.5548 80.675C45.6671 81.0642 45.7536 81.4405 45.8143 81.8038Z" fill="white"/>
<path d="M60.3164 76.7588C60.2663 77.0068 60.2252 77.1972 60.1931 77.3301C60.1611 77.463 60.0916 77.4876 59.9846 77.4041C59.7349 77.209 59.4357 77.004 59.0869 76.7889C58.7381 76.5738 58.3295 76.4627 57.8612 76.4558C57.5555 76.461 57.2349 76.5407 56.8991 76.6948C56.5773 76.831 56.3496 77.0766 56.2158 77.4316C56.0921 77.7369 56.1102 78.0813 56.2701 78.4646C56.4161 78.8658 56.6596 79.1422 57.0006 79.2938C57.3556 79.4275 57.7384 79.5256 58.149 79.588C58.5736 79.6326 58.9973 79.6693 59.4199 79.698C59.8585 79.7247 60.2413 79.8228 60.5683 79.9922C60.6695 80.0281 60.7507 80.0988 60.812 80.2041C60.8872 80.2916 60.9614 80.3711 61.0347 80.4427C61.1258 80.5283 61.207 80.5989 61.2784 80.6546C61.3656 80.7084 61.4487 80.7949 61.5278 80.9141C61.5872 81.0036 61.6574 81.1159 61.7385 81.251C61.8176 81.3702 61.851 81.5112 61.8388 81.6739C61.8165 81.8862 61.6453 82.1329 61.3251 82.414C60.6233 82.9999 59.8701 83.4954 59.0654 83.9005C58.2589 84.2897 57.3754 84.4465 56.415 84.371C56.3 84.3529 56.1602 84.2653 55.9959 84.1081C55.8295 83.9351 55.6948 83.8227 55.5917 83.7709C55.3201 83.6591 55.123 83.498 55.0004 83.2873C54.8227 82.89 54.7036 82.4452 54.6431 81.9529C54.6236 81.7941 54.6387 81.7197 54.6883 81.7298C54.7518 81.722 54.8074 81.7151 54.855 81.7093C54.9503 81.6976 55.0613 81.7484 55.1881 81.8618C55.3307 81.9733 55.4763 82.1085 55.6248 82.2676C55.7872 82.4089 55.9328 82.5442 56.0615 82.6734C56.2042 82.7849 56.3152 82.8357 56.3946 82.826C56.6802 82.9199 57.0145 82.9514 57.3976 82.9204C57.7807 82.8895 58.1579 82.811 58.5293 82.6848C58.9146 82.5407 59.2623 82.353 59.5724 82.1214C59.8964 81.8721 60.1431 81.5839 60.3125 81.2568C60.3028 81.1774 60.1958 81.0938 59.9916 81.006C59.8033 80.9163 59.5584 80.8255 59.2569 80.7335C58.9535 80.6257 58.6183 80.5218 58.2514 80.4218C57.9004 80.3198 57.5563 80.2089 57.2192 80.0891C56.898 79.9673 56.6075 79.8337 56.3478 79.6883C56.1041 79.5409 55.9317 79.3847 55.8309 79.2198C55.7677 79.0986 55.6965 78.9784 55.6173 78.8591C55.5363 78.724 55.4839 78.6257 55.4602 78.5641C55.3379 78.2245 55.2811 77.8929 55.2897 77.5694C55.2964 77.2301 55.3556 76.9246 55.4674 76.653C55.5791 76.3813 55.7443 76.1515 55.963 75.9634C56.1798 75.7595 56.4361 75.6152 56.732 75.5305C57.2006 75.4085 57.7088 75.3461 58.2565 75.3433C58.8182 75.3227 59.3329 75.4449 59.8007 75.7098C59.9414 75.8054 60.0414 75.8979 60.1008 75.9873C60.176 76.0748 60.2373 76.1801 60.2847 76.3033C60.3103 76.3807 60.3359 76.4582 60.3615 76.5356C60.3852 76.5972 60.3702 76.6716 60.3164 76.7588Z" fill="white"/>
<path d="M66.5509 74.5908C66.6936 74.7023 66.7539 74.7997 66.7319 74.883C66.7257 74.9643 66.682 75.0019 66.6006 74.9958C66.3942 75.0212 66.1669 75.0732 65.9186 75.1521C65.6843 75.2131 65.4262 75.277 65.1442 75.3439C64.8762 75.3929 64.5903 75.428 64.2867 75.4492C63.983 75.4704 63.6744 75.4518 63.361 75.3936C63.2183 75.2821 63.2047 75.171 63.32 75.0601C63.4493 74.9314 63.541 74.7589 63.595 74.5427C63.6251 74.3939 63.6769 74.2909 63.7505 74.2335C63.838 74.1582 63.9284 74.1068 64.0217 74.0793C64.1964 74.0578 64.4157 74.0712 64.6795 74.1194C64.9573 74.1498 65.1845 74.1622 65.3611 74.1566C65.635 74.1552 65.8632 74.1756 66.0457 74.2176C66.2262 74.2438 66.3946 74.3682 66.5509 74.5908ZM66.4485 77.8919C66.5886 78.2455 66.701 78.5702 66.7857 78.8661C66.8863 79.16 66.962 79.449 67.013 79.7329C67.0779 79.9989 67.1279 80.2749 67.163 80.5607C67.214 80.8447 67.26 81.1534 67.3009 81.4868C67.3087 81.5504 67.2778 81.6267 67.2081 81.7159C67.1524 81.7872 67.1136 81.8645 67.0915 81.9478C67.0456 82.0985 67.0007 82.1927 66.957 82.2303C66.9291 82.266 66.8705 82.3135 66.781 82.3728C66.5704 82.4954 66.3885 82.6548 66.2352 82.8509C65.9917 82.5745 65.8059 82.2427 65.6777 81.8554C65.5655 81.4662 65.4671 81.0591 65.3827 80.6343C65.3142 80.2074 65.2377 79.7816 65.1533 79.3567C65.0828 78.914 64.9746 78.492 64.8286 78.0908C64.7537 77.8744 64.751 77.7215 64.8207 77.6324C64.8904 77.5432 64.9709 77.4769 65.0623 77.4335C65.1695 77.388 65.2916 77.3972 65.4283 77.461C65.581 77.5229 65.7258 77.5857 65.8626 77.6495C65.9815 77.6994 66.0896 77.7264 66.1869 77.7306C66.298 77.717 66.3852 77.7707 66.4485 77.8919Z" fill="white"/>
<path d="M73.0267 74.7629L72.6714 75.2176C72.7965 75.1861 72.9832 75.131 73.2314 75.0521C73.4936 74.9555 73.7517 74.8915 74.0058 74.8603C74.2003 74.8687 74.3669 74.9127 74.5057 74.9924C74.6444 75.0721 74.7462 75.245 74.8111 75.511C74.9215 75.8844 75.0645 76.2618 75.2403 76.6432C75.43 77.0068 75.5801 77.3752 75.6904 77.7486C75.8166 78.12 75.8614 78.4852 75.8249 78.8443C75.7865 79.1876 75.6091 79.5156 75.2929 79.8285C74.9959 80.4292 74.6485 80.9474 74.2506 81.3831C73.8667 81.801 73.4404 82.071 72.9718 82.193C72.66 82.2797 72.3057 82.2828 71.909 82.2026C71.5103 82.1065 71.2032 81.9024 70.9875 81.5903C70.9438 81.628 70.9051 81.6408 70.8713 81.6288C70.8357 81.6009 70.8 81.5731 70.7644 81.5452C70.7287 81.5173 70.696 81.5133 70.6661 81.5331C70.6522 81.5509 70.6354 81.5449 70.6156 81.5151C70.5938 81.4694 70.5781 81.4069 70.5684 81.3275L70.5625 81.2798L70.5567 81.2322C70.5043 80.6744 70.4837 80.1127 70.4948 79.5471C70.5199 78.9637 70.5876 78.3993 70.698 77.8538C70.8223 77.2904 70.999 76.7609 71.2284 76.2653C71.4716 75.7518 71.8011 75.2842 72.2167 74.8624C72.3639 74.7476 72.5346 74.6944 72.7291 74.7027C72.7609 74.6988 72.8006 74.694 72.8482 74.6881C72.8959 74.6823 72.9553 74.7072 73.0267 74.7629ZM72.4156 76.4822C72.3184 76.478 72.2589 76.4531 72.2372 76.4074C72.2155 76.3617 72.2086 76.3061 72.2167 76.2407C72.2387 76.1574 72.2598 76.0661 72.2798 75.9669C72.3158 75.8658 72.3279 75.7676 72.3162 75.6723C72.0197 76.015 71.8026 76.4124 71.6646 76.8646C71.5426 77.3148 71.4702 77.7751 71.4473 78.2454C71.4225 78.6998 71.4364 79.1414 71.4891 79.5702C71.5576 79.997 71.6272 80.3673 71.698 80.681C71.7629 80.947 71.8458 81.1626 71.9466 81.3275C72.0455 81.4765 72.1763 81.5572 72.339 81.5695C72.5196 81.5957 72.744 81.5198 73.0123 81.3417C73.3999 81.0846 73.6983 80.7578 73.9075 80.3613C74.1167 79.9649 74.2754 79.5504 74.3835 79.118C74.4198 78.8879 74.4352 78.62 74.4299 78.3144C74.4386 77.9909 74.3946 77.6981 74.2979 77.4359C74.1737 77.0804 73.935 76.8437 73.582 76.7259C73.243 76.5902 72.8542 76.509 72.4156 76.4822Z" fill="white"/>
<path d="M80.1688 77.5856C80.4057 77.2824 80.6405 76.9634 80.8735 76.6286C81.1203 76.2758 81.3771 75.938 81.6437 75.6151C81.9103 75.2922 82.1888 75.0001 82.4791 74.7388C82.7675 74.4616 83.0776 74.2301 83.4094 74.0442C83.4849 74.0027 83.5554 73.986 83.6209 73.9941C83.7022 74.0002 83.7807 73.9825 83.8562 73.941C83.9832 73.9254 84.0944 73.9118 84.1897 73.9001C84.2849 73.8884 84.3762 73.9094 84.4634 73.9632C84.7033 74.0788 84.9033 74.2638 85.0635 74.5182C85.2376 74.7547 85.3918 75.026 85.5261 75.3319C85.6111 75.4988 85.6633 75.6616 85.6828 75.8204C85.7182 75.9773 85.7883 76.1541 85.893 76.3508C86.0253 76.6408 86.1666 76.9378 86.3168 77.2418C86.4809 77.5279 86.5646 77.8158 86.5679 78.1056C86.5618 78.1869 86.5467 78.2613 86.5228 78.3288C86.4969 78.3803 86.4649 78.4487 86.4271 78.534C86.4031 78.6014 86.3573 78.6876 86.2896 78.7926C86.2219 78.8977 86.1512 78.9789 86.0777 79.0363C86.0061 79.1095 85.9573 79.172 85.9314 79.2235C85.9194 79.2572 85.8528 79.3057 85.7316 79.3689C85.4881 79.0925 85.2894 78.7865 85.1353 78.4508C84.9812 78.115 84.8411 77.7615 84.7149 77.3901C84.5887 77.0187 84.4695 76.6384 84.3572 76.2492C84.2449 75.86 84.1158 75.4647 83.9698 75.0635C83.9244 74.9563 83.8134 74.9054 83.6367 74.911C83.476 74.9146 83.2922 74.9936 83.0855 75.1479C82.8927 75.2845 82.6928 75.4944 82.4858 75.7777C82.2788 76.0611 82.1044 76.4129 81.9625 76.8334C81.8706 77.1348 81.7885 77.4512 81.7164 77.7824C81.6422 78.0978 81.5532 78.4231 81.4493 78.7583C81.3593 79.0756 81.2375 79.3968 81.084 79.722C80.9444 80.0293 80.7622 80.3176 80.5374 80.587C80.4677 80.6762 80.4131 80.6909 80.3735 80.6313C80.334 80.5717 80.2478 80.5259 80.1149 80.4938C80.0157 80.4738 79.9562 80.4488 79.9364 80.419C79.9325 80.3872 79.897 80.2949 79.8299 80.1419C79.6936 79.8201 79.5436 79.4517 79.3798 79.0365C79.2318 78.6195 79.0651 78.1805 78.8796 77.7197C78.7099 77.2569 78.5323 76.7951 78.3468 76.3343C78.1593 75.8576 77.9757 75.4126 77.796 74.9995L77.6004 74.5882C77.6244 74.5208 77.6731 74.4584 77.7467 74.401C77.8361 74.3417 77.9265 74.2903 78.0179 74.2468C78.1093 74.2033 78.2135 74.1986 78.3305 74.2326C78.4475 74.2666 78.5378 74.2797 78.6013 74.2719C78.776 74.2504 78.9405 74.3431 79.0949 74.5498C79.2651 74.7546 79.4193 75.0258 79.5575 75.3635C79.6937 75.6853 79.811 76.0497 79.9093 76.4568C80.0216 76.846 80.1081 77.2223 80.1688 77.5856Z" fill="white"/>
</svg>
